<?xml version="1.0" encoding="UTF-8"?>
<svg id="Layer_2" data-name="Layer 2" xmlns="http://www.w3.org/2000/svg" xmlns:xlink="http://www.w3.org/1999/xlink" viewBox="0 0 1141.3 365.66">
  <defs>
    <style>
      .cls-1, .cls-2 {
        fill: #fff;
      }

      .cls-2 {
        opacity: .06;
      }

      .cls-3 {
        fill: url(#linear-gradient);
      }
    </style>
    <linearGradient id="linear-gradient" x1="282.56" y1="595.03" x2="883.66" y2="-6.07" gradientUnits="userSpaceOnUse">
      <stop offset="0" stop-color="#f2e2cc"/>
      <stop offset=".42" stop-color="#ddaf72"/>
      <stop offset="1" stop-color="#ffe6bb"/>
    </linearGradient>
  </defs>
  <g id="Layer_1-2" data-name="Layer 1">
    <g>
      <g>
        <g>
          <g>
            <rect class="cls-2" x="99.18" width="93.47" height="107.26"/>
            <path class="cls-1" d="M126.05,77.31l-13.88-52.26h8.21c4.22,18.42,9.22,37.96,10.12,43.89h.08c1.49-7.28,8.26-30.69,11.61-43.89h7.39c3.05,11.36,9.84,36.71,11.11,43.58h.08c1.69-9.5,8.58-33.34,11.27-43.58h7.63l-15.04,52.26h-8.26c-3.09-11.94-9.41-35.33-10.79-42.1h-.07c-1.63,8.08-7.98,30.38-11.23,42.1h-8.21Z"/>
          </g>
          <g>
            <rect class="cls-2" x="198.78" width="93.47" height="107.26"/>
            <path class="cls-1" d="M260.93,53.24h-25.8v17.5h28.36l-.98,6.57h-34.97V25.05h34.6v6.57h-27.02v15.06h25.8v6.57Z"/>
          </g>
          <g>
            <rect class="cls-2" x="298.39" width="93.47" height="107.26"/>
            <path class="cls-1" d="M327.73,25.05h7.76v45.69h27.03l-1.03,6.57h-33.76V25.05Z"/>
          </g>
          <g>
            <rect class="cls-2" x="397.99" width="93.47" height="107.26"/>
            <path class="cls-1" d="M467.13,62.25c-2.28,9.04-9.03,15.73-21.12,15.73-15.81,0-23.68-11.83-23.68-26.62s7.93-27.06,24-27.06c12.63,0,19.32,7.24,20.81,15.98h-7.76c-1.72-5.38-5.31-9.62-13.35-9.62-11.11,0-15.61,10.08-15.61,20.45s4.22,20.51,15.91,20.51c7.93,0,11.23-4.68,13.01-9.37h7.79Z"/>
          </g>
          <g>
            <rect class="cls-2" x="497.6" width="93.47" height="107.26"/>
            <path class="cls-1" d="M568.79,50.91c0,14.41-8.19,27.16-24.75,27.16-15.58,0-24.16-11.9-24.16-26.88s8.9-26.88,24.79-26.88c14.82,0,24.12,10.99,24.12,26.61ZM527.97,50.96c0,11.09,5.53,20.58,16.4,20.58,11.74,0,16.33-9.7,16.33-20.51s-5.21-20.19-16.35-20.19-16.38,9.16-16.38,20.12Z"/>
          </g>
          <g>
            <rect class="cls-2" x="597.2" width="93.47" height="107.26"/>
            <path class="cls-1" d="M662.41,55.55c0-9.56.11-19.45.34-25.02h-.29c-2.28,8.89-10.12,30.36-15.93,46.79h-6.86c-4.39-13.55-12.51-37.69-14.85-46.9h-.25c.41,6.05.59,17.5.59,26.46v20.44h-7.24V25.05h11.57c5.58,15.73,12.33,35.94,14.08,42.81h.12c1.24-5.38,9.28-27.46,15.08-42.81h11.22v52.26h-7.55v-21.77Z"/>
          </g>
          <g>
            <rect class="cls-2" x="696.81" width="93.47" height="107.26"/>
            <path class="cls-1" d="M758.96,53.24h-25.8v17.5h28.36l-.98,6.57h-34.97V25.05h34.6v6.57h-27.02v15.06h25.8v6.57Z"/>
          </g>
        </g>
        <g>
          <g>
            <rect class="cls-2" x="849.05" width="93.47" height="107.26"/>
            <path class="cls-1" d="M891.89,31.62h-16.69v-6.57h41.18v6.57h-16.7v45.69h-7.8V31.62Z"/>
          </g>
          <g>
            <rect class="cls-2" x="948.66" width="93.47" height="107.26"/>
            <path class="cls-1" d="M1019.85,50.91c0,14.41-8.19,27.16-24.75,27.16-15.58,0-24.16-11.9-24.16-26.88s8.9-26.88,24.79-26.88c14.82,0,24.12,10.99,24.12,26.61ZM979.03,50.96c0,11.09,5.53,20.58,16.4,20.58,11.74,0,16.33-9.7,16.33-20.51s-5.21-20.19-16.35-20.19-16.38,9.16-16.38,20.12Z"/>
          </g>
        </g>
      </g>
      <g>
        <path class="cls-3" d="M10.74,258.23c-3.1-2.94-6.67-4.83-10.74-5.69v-1.44h45.34v1.44l-1.6.32c-2.35.43-4.25,1.5-5.69,3.2-1.44,1.71-2.16,3.69-2.16,5.93,0,1.18.21,2.35.64,3.53l25.8,70.02,29.32-86.84h4.81l33.33,86.84,23.55-70.02c.32-1.17.48-2.24.48-3.2,0-1.92-.59-3.66-1.76-5.21-1.18-1.55-2.78-2.64-4.81-3.28l-4.49-1.28v-1.44h32.85v1.44c-4.38,1.28-8.17,3.47-11.38,6.57-3.2,3.1-5.5,6.84-6.89,11.22l-31.73,95.34h-4.81l-33.49-87.65-29.48,87.65h-4.65l-35.25-95.82c-1.71-4.81-4.11-8.68-7.21-11.62Z"/>
        <path class="cls-3" d="M218.87,330.41h-41.18l-6.89,18.11c-.54,1.39-.8,2.62-.8,3.69,0,1.92.61,3.63,1.84,5.13,1.23,1.5,2.86,2.56,4.89,3.2l4.17,1.28v1.44h-33.01v-1.44l.32-.16c4.27-1.28,7.98-3.34,11.14-6.17,3.15-2.83,5.47-6.33,6.97-10.5l35.89-96.3h4.65l38.13,96.46c1.71,4.59,4.14,8.31,7.29,11.14,3.15,2.83,6.75,4.67,10.82,5.53v1.44h-45.35v-1.44c3.63-.64,6.19-1.44,7.69-2.4,1.49-.96,2.24-2.35,2.24-4.17,0-1.6-.54-3.79-1.6-6.57l-7.21-18.27ZM178.82,327.36h38.78l-20.03-51.11-18.75,51.11Z"/>
        <path class="cls-3" d="M345.13,344.43c-.86,2.72-1.28,5.64-1.28,8.73,0,2.56.32,4.65.96,6.25.64,1.6,1.6,2.4,2.88,2.4v1.44h-90.53v-1.44l5.61-1.12c2.03-.43,3.69-1.39,4.97-2.88,1.28-1.49,1.92-3.31,1.92-5.45v-90.37c0-2.14-.64-3.95-1.92-5.45-1.28-1.49-2.94-2.46-4.97-2.88l-5.61-1.12v-1.44h44.22v1.44l-6.25,1.28c-1.82.32-3.31,1.23-4.49,2.72-1.18,1.5-1.76,3.31-1.76,5.45v89.09c0,2.56.85,4.7,2.56,6.41,1.71,1.71,3.85,2.56,6.41,2.56h27.08c1.28,0,2.43-.77,3.44-2.32,1.01-1.55,2.11-3.87,3.28-6.97,1.81-4.27,3.44-7.45,4.89-9.53,1.44-2.08,3.34-3.12,5.69-3.12,1.82,0,3.79.75,5.93,2.24-1.18,0-2.19,1.36-3.04,4.09Z"/>
        <path class="cls-3" d="M439.83,344.43c-.86,2.72-1.28,5.64-1.28,8.73,0,2.56.32,4.65.96,6.25.64,1.6,1.6,2.4,2.88,2.4v1.44h-90.53v-1.44l5.61-1.12c2.03-.43,3.69-1.39,4.97-2.88,1.28-1.49,1.92-3.31,1.92-5.45v-90.37c0-2.14-.64-3.95-1.92-5.45-1.28-1.49-2.94-2.46-4.97-2.88l-5.61-1.12v-1.44h44.22v1.44l-6.25,1.28c-1.82.32-3.31,1.23-4.49,2.72-1.18,1.5-1.76,3.31-1.76,5.45v89.09c0,2.56.85,4.7,2.56,6.41,1.71,1.71,3.85,2.56,6.41,2.56h27.08c1.28,0,2.43-.77,3.44-2.32,1.01-1.55,2.11-3.87,3.28-6.97,1.81-4.27,3.44-7.45,4.89-9.53,1.44-2.08,3.34-3.12,5.69-3.12,1.82,0,3.79.75,5.93,2.24-1.18,0-2.19,1.36-3.04,4.09Z"/>
        <path class="cls-3" d="M566.09,353.96c-4.27,3.74-9.13,6.62-14.58,8.65-5.45,2.03-11,3.04-16.66,3.04-7.05,0-13.83-1.58-20.35-4.73-6.52-3.15-11.91-7.45-16.18-12.9-8.23-10.15-12.34-22.64-12.34-37.49,0-1.71.1-4.27.32-7.69,1.6-18.37,8.17-32.53,19.71-42.46,4.17-3.74,8.95-6.62,14.34-8.65,5.39-2.03,10.98-3.04,16.74-3.04,7.05,0,13.8,1.58,20.27,4.73,6.46,3.15,11.94,7.45,16.42,12.9,8.01,10.04,12.02,22.54,12.02,37.49,0,1.71-.11,4.27-.32,7.69-1.6,18.27-8.07,32.42-19.39,42.46ZM551.02,261.19c-5.34-6.62-11.48-9.93-18.43-9.93-3.74,0-7.29,1.02-10.65,3.04-3.37,2.03-6.33,5.4-8.89,10.09-3.95,7.37-5.93,17.79-5.93,31.24,0,4.91.21,9.56.64,13.94,1.82,20.62,6.19,35.15,13.14,43.58,5.23,6.62,11.38,9.93,18.43,9.93,3.53,0,7.02-1.04,10.5-3.12,3.47-2.08,6.49-5.42,9.05-10.01,3.95-7.58,5.93-18.11,5.93-31.57,0-4.81-.22-9.35-.64-13.62-1.82-20.51-6.2-35.04-13.14-43.58Z"/>
        <path class="cls-3" d="M678.89,254.94c-.64,1.6-.96,3.69-.96,6.25,0,3.1.43,6.01,1.28,8.73.85,2.72,1.87,4.09,3.04,4.09-2.14,1.5-4.11,2.24-5.93,2.24-2.35,0-4.25-1.04-5.69-3.12-1.44-2.08-3.07-5.26-4.89-9.53-1.18-3.1-2.27-5.42-3.28-6.97-1.02-1.55-2.16-2.32-3.44-2.32h-29.8c-1.82,0-3.31.83-4.49,2.48-1.18,1.66-1.76,3.55-1.76,5.69v39.9h3.2c4.91,0,9.61-1.15,14.1-3.44,4.49-2.3,8.12-5.42,10.9-9.37l1.12-1.6h1.92v32.05h-1.92l-1.12-1.6c-2.78-3.95-6.41-7.07-10.9-9.37-4.49-2.3-9.19-3.44-14.1-3.44h-3.2v46.79c0,2.14.64,3.95,1.92,5.45,1.28,1.5,2.94,2.46,4.97,2.88l5.61,1.12v1.44h-44.22v-1.44l5.61-1.12c2.03-.43,3.69-1.39,4.97-2.88,1.28-1.49,1.92-3.31,1.92-5.45v-90.37c0-2.14-.64-3.95-1.92-5.45-1.28-1.49-2.94-2.46-4.97-2.88l-5.61-1.12v-1.44h90.53v1.44c-1.28,0-2.24.8-2.88,2.4Z"/>
        <path class="cls-3" d="M807.71,254.94c-.64,1.6-.96,3.69-.96,6.25,0,3.1.43,6.01,1.28,8.73.85,2.72,1.87,4.09,3.04,4.09-2.14,1.5-4.11,2.24-5.93,2.24-2.35,0-4.25-1.04-5.69-3.12-1.44-2.08-3.07-5.26-4.89-9.53-1.18-3.1-2.27-5.42-3.28-6.97-1.02-1.55-2.16-2.32-3.44-2.32h-29.8c-1.82,0-3.31.83-4.49,2.48-1.18,1.66-1.76,3.55-1.76,5.69v39.9h3.2c4.91,0,9.61-1.15,14.1-3.44,4.49-2.3,8.12-5.42,10.9-9.37l1.12-1.6h1.92v32.05h-1.92l-1.12-1.6c-2.78-3.95-6.41-7.07-10.9-9.37-4.49-2.3-9.19-3.44-14.1-3.44h-3.2v46.79c0,2.14.64,3.95,1.92,5.45,1.28,1.5,2.94,2.46,4.97,2.88l5.61,1.12v1.44h-44.22v-1.44l5.61-1.12c2.03-.43,3.69-1.39,4.97-2.88,1.28-1.49,1.92-3.31,1.92-5.45v-90.37c0-2.14-.64-3.95-1.92-5.45-1.28-1.49-2.94-2.46-4.97-2.88l-5.61-1.12v-1.44h90.53v1.44c-1.28,0-2.24.8-2.88,2.4Z"/>
        <path class="cls-3" d="M861.22,330.41h-41.18l-6.89,18.11c-.54,1.39-.8,2.62-.8,3.69,0,1.92.61,3.63,1.84,5.13,1.23,1.5,2.86,2.56,4.89,3.2l4.17,1.28v1.44h-33.01v-1.44l.32-.16c4.27-1.28,7.98-3.34,11.14-6.17,3.15-2.83,5.47-6.33,6.97-10.5l35.89-96.3h4.65l38.13,96.46c1.71,4.59,4.14,8.31,7.29,11.14,3.15,2.83,6.75,4.67,10.82,5.53v1.44h-45.35v-1.44c3.63-.64,6.19-1.44,7.69-2.4,1.49-.96,2.24-2.35,2.24-4.17,0-1.6-.54-3.79-1.6-6.57l-7.21-18.27ZM821.17,327.36h38.78l-20.03-51.11-18.75,51.11Z"/>
        <path class="cls-3" d="M1010.24,251.1h30.76v1.44l-5.61,1.12c-2.03.43-3.68,1.39-4.97,2.88-1.28,1.5-1.92,3.31-1.92,5.45v90.37c0,2.14.64,3.95,1.92,5.45,1.28,1.5,2.94,2.46,4.97,2.88l5.61,1.12v1.44h-44.22v-1.44l5.61-1.12c2.03-.43,3.69-1.39,4.97-2.88,1.28-1.49,1.92-3.31,1.92-5.45v-84.12l-40.06,97.42h-4.49l-45.35-97.9v83.96c0,1.82.53,3.44,1.6,4.89,1.07,1.44,2.51,2.43,4.33,2.96l7.53,2.24v1.44h-32.85v-1.44l7.69-2.24c1.71-.43,3.12-1.41,4.25-2.96,1.12-1.55,1.68-3.23,1.68-5.05v-89.09c0-2.03-.59-3.77-1.76-5.21-1.18-1.44-2.72-2.43-4.65-2.96l-7.21-1.76v-1.44h31.73l41.66,90.53,36.85-90.53Z"/>
        <path class="cls-3" d="M1138.26,344.43c-.86,2.72-1.28,5.64-1.28,8.73,0,2.56.32,4.65.96,6.25.64,1.6,1.6,2.4,2.88,2.4v1.44h-90.53v-1.44l5.61-1.12c2.03-.43,3.69-1.39,4.97-2.88,1.28-1.49,1.92-3.31,1.92-5.45v-90.37c0-2.14-.64-3.95-1.92-5.45-1.28-1.49-2.94-2.46-4.97-2.88l-5.61-1.12v-1.44h90.53v1.44c-1.28,0-2.24.8-2.88,2.4-.64,1.6-.96,3.69-.96,6.25,0,3.1.43,6.01,1.28,8.73.85,2.72,1.87,4.09,3.04,4.09-2.14,1.5-4.11,2.24-5.93,2.24-2.35,0-4.25-1.04-5.69-3.12-1.44-2.08-3.07-5.26-4.89-9.53-1.18-3.1-2.27-5.42-3.28-6.97-1.02-1.55-2.16-2.32-3.44-2.32h-29.8c-1.82,0-3.31.83-4.49,2.48-1.18,1.66-1.76,3.55-1.76,5.69v39.9h3.2c4.91,0,9.61-1.15,14.1-3.44,4.49-2.3,8.12-5.42,10.9-9.37l1.12-1.6h1.92v32.05h-1.92l-1.12-1.6c-2.78-3.95-6.41-7.07-10.9-9.37-4.49-2.3-9.19-3.44-14.1-3.44h-3.2v45.51c0,2.56.85,4.7,2.56,6.41,1.71,1.71,3.85,2.56,6.41,2.56h27.08c1.28,0,2.43-.77,3.44-2.32,1.01-1.55,2.11-3.87,3.28-6.97,1.81-4.27,3.44-7.45,4.89-9.53,1.44-2.08,3.34-3.12,5.69-3.12,1.82,0,3.79.75,5.93,2.24-1.18,0-2.19,1.36-3.04,4.09Z"/>
      </g>
      <g>
        <path class="cls-1" d="M295.59,199.38l2.36.11c2.21,0,3.18-.39,3.56-.62.49-.33.83-.89,1-1.66.1-.58.28-2.33.28-7.24v-22.76c0-4.71-.18-6.41-.29-7-.09-.53-.32-1.22-.88-1.56-.28-.15-1.22-.42-4.02-.42h-1.51l-.51-3.46,22.75-.31.57,3.77h-2.14c-3.15,0-3.85.34-3.91.38-.44.25-.75.75-.96,1.51-.1.5-.29,2.16-.29,7.09v8.36l22.46-.26-.27-8.08c0-3.25-.11-5.94-.3-7.07-.09-.5-.32-1.18-.87-1.5-.17-.1-.95-.43-3.98-.43h-1.93l-.51-3.46,22.98-.31.56,3.77h-1.89c-2.85,0-3.76.28-4.01.4-.39.23-.72.74-.94,1.5-.18.81-.28,3.2-.28,7.08v22.76c0,3.51.07,5.97.2,7.09.16.82.49,1.4,1.02,1.77.28.2,1.17.65,3.7.65h1.65l.46,3.65h-22.96l-.49-3.75,2.75.1c2.21,0,3.18-.39,3.55-.62.5-.31.82-.84.98-1.63.18-1.14.29-3.94.29-7.26v-10.42l-22.41.24.22,10.15c0,3.99.08,6.08.27,7.02.12.88.43,1.47.97,1.86.26.2,1.13.64,3.59.64h1.9l.52,3.38-22.77.28-.5-3.78Z"/>
        <path class="cls-1" d="M382.52,203.99c-7.65,0-14-2.34-18.88-6.97-4.97-4.7-7.48-10.92-7.48-18.47s2.55-13.55,7.59-18.07c4.98-4.53,11.26-6.83,18.65-6.83s13.83,2.26,18.86,6.73c5.1,4.49,7.68,10.68,7.68,18.4s-2.46,13.56-7.3,18.24c-4.89,4.69-11.14,6.97-19.12,6.97ZM382.46,157.47c-5.29,0-9.24,1.73-12.09,5.28-2.79,3.55-4.21,8.95-4.21,16.02s1.42,12.65,4.22,16.17c2.84,3.52,6.99,5.23,12.68,5.23,4.86,0,8.75-1.76,11.57-5.24,2.88-3.52,4.35-8.94,4.35-16.1s-1.43-12.35-4.25-15.99c-2.78-3.57-6.9-5.38-12.25-5.38Z"/>
        <path class="cls-1" d="M415.83,203.14l-.47-3.76,2.39.11c2.37,0,3.27-.42,3.55-.61.55-.34.87-.85,1.07-1.7.02-.12.29-1.74.29-7.21v-22.76c0-3-.12-5.78-.31-7.08-.2-.76-.48-1.26-.86-1.47-.3-.16-1.24-.44-4.1-.44h-1.58l-.45-3.77,8.5-.22c3.94-.09,7.08-.17,9.41-.17,5,0,8.73.38,11.4,1.17,2.83.81,5.09,2.22,6.89,4.31,1.84,2.14,2.78,4.81,2.78,7.94,0,2.75-.62,5.14-1.9,7.29-1.21,2.12-3.01,3.75-5.32,4.84-2.24,1.07-5.92,1.58-11.58,1.58h-4.37l.24,8.74c0,3.73.15,6.11.29,7.09.16.89.45,1.45.95,1.78.29.2,1.22.66,3.71.66h2.21l.49,3.65h-23.23ZM433.78,177.43c2.62,0,4.63-.24,6.1-.74,1.37-.45,2.54-1.42,3.59-3,.95-1.45,1.44-3.39,1.44-5.75,0-3.52-.83-6.1-2.47-7.68-1.7-1.61-4.47-2.4-8.47-2.4-1.1,0-2.02.03-2.76.06l.21,19.46,2.37.04Z"/>
        <path class="cls-1" d="M461.25,203.14l-.49-3.76,2.44.11c2.34,0,3.24-.43,3.52-.61.55-.34.89-.87,1.07-1.67.14-.93.22-3.38.22-7.23v-22.76c0-3.72-.08-6.1-.23-7.07-.17-.74-.47-1.25-.88-1.48-.53-.29-1.9-.44-4.08-.44h-1.58l-.48-3.77,8.61-.22c3.92-.09,7.02-.17,9.32-.17,4.9,0,8.61.38,11.36,1.17,2.79.81,5.12,2.25,6.92,4.31,1.84,2.16,2.76,4.83,2.76,7.94,0,2.77-.62,5.15-1.9,7.29-1.2,2.09-2.98,3.73-5.29,4.84-2.31,1.09-5.91,1.58-11.67,1.58h-4.26l.25,8.74c0,3.78.06,6.1.2,7.1.17.83.5,1.41,1.02,1.79.27.19,1.15.64,3.66.64h2.24l.44,3.65h-23.18ZM479.17,177.43c2.61,0,4.62-.24,6.13-.74,1.38-.44,2.53-1.39,3.62-3,.95-1.49,1.44-3.42,1.44-5.74,0-3.52-.85-6.1-2.53-7.67-1.66-1.6-4.49-2.41-8.4-2.41-1.11,0-2.04.03-2.77.06l.22,19.46,2.3.04Z"/>
        <path class="cls-1" d="M506.64,203.14l-.47-3.77,2.13.12c3.03,0,3.61-.53,3.67-.59.57-.52.92-1.13,1.08-1.86.15-.81.22-3.06.22-7.06v-22.76c0-3.78-.08-5.9-.26-6.88-.2-1.14-.58-1.47-.85-1.63-.34-.22-1.26-.47-3.91-.47h-.68l-.5-3.46,35.18-.3,1.49,13.35-3.22.53-.2-.66c-1.09-3.64-1.94-5.66-2.84-6.76-.87-1.17-1.97-1.94-3.2-2.24-1.37-.3-3.67-.45-6.84-.45h-5.66l.25,17.61,3.9-.23c2.15,0,3.6-.16,4.35-.48.63-.3,1.04-.67,1.18-1.1.21-.57.45-1.76.45-4.33v-.67l3.36-.5.3,17.7-3.34.53-.06-.85c-.2-2.63-.49-4.33-.87-5.04-.27-.6-.7-.98-1.28-1.17-.76-.23-2.06-.35-3.85-.35h-4.38l.26,9.92c0,7.34.68,8.9.89,9.21.11.16.91,1,4.89,1h3.49c2.26,0,4.17-.29,5.66-.87,1.31-.53,2.67-1.72,4.03-3.51,1.36-1.9,2.43-4.51,3.18-7.73l.13-.54,3.38-.36v.37s.02,0,.02,0l-.09,1.49-.72,14.8h-40.28Z"/>
        <path class="cls-1" d="M554.11,199.39l2.69.1c2.42,0,3.26-.45,3.45-.59.6-.35.93-.86,1.1-1.69.17-1.07.28-3.78.28-7.23v-22.76c0-3.3-.11-5.94-.29-7.04-.09-.5-.32-1.19-.87-1.51-.28-.15-1.21-.42-4.08-.42h-1.5l-.44-3.76,7.77-.3c3.99-.22,7.57-.33,10.64-.33,4.58,0,8.22.43,11.12,1.32,3,.89,5.43,2.34,7.22,4.33,1.87,2.01,2.83,4.52,2.83,7.44,0,3.4-1.21,6.18-3.72,8.53-1.89,1.86-4.54,3.17-7.88,3.88,1.99,1.77,4.53,4.77,7.58,8.94,3.57,4.79,6.2,7.73,8.04,9,1.82,1.38,4.02,2.11,6.58,2.2l.66.02.45,3.63h-13.93l-.2-.14c-2.45-1.67-5.93-5.76-10.63-12.5-1.23-1.82-2.62-3.68-4.5-6.03-1.94-2.32-2.72-3.09-3.04-3.32-.4-.29-1.11-.43-2.17-.43h-1.08l.24,9.24c0,3.28.09,5.93.23,7.11.14.81.46,1.41.96,1.79.55.39,1.94.63,3.69.63h2.93l.49,3.38-24.19.28-.45-3.76ZM570.43,176.99l.74-.02c1.16-.04,2.34-.08,3.48-.14,1.59-.06,3.07-.29,4.53-.71,1.32-.42,2.25-.92,2.82-1.51.81-.75,1.36-1.63,1.71-2.72.48-1.24.73-2.74.73-4.41,0-3.02-.73-5.38-2.24-7.2-1.4-1.68-4.82-2.58-9.89-2.58-.61,0-1.31.03-2.11.1l.23,19.19Z"/>
        <path class="cls-1" d="M629.42,203.99c-4.95,0-9.17-1.73-12.55-5.15-.38.82-.69,1.81-.92,2.97l-.11.56-3.38.36-.29-16.77,3.36-.45.16.7c2.12,9.53,6.28,13.98,13.07,13.98,3.01,0,5.31-.82,6.83-2.43,1.65-1.7,2.45-3.51,2.45-5.54s-.71-3.7-2.11-5.13c-1.47-1.47-4.19-3.02-8.31-4.74-4.3-1.93-6.86-3.21-8.57-4.27-2.06-1.34-3.68-3.07-4.84-5.14-1.11-2.04-1.67-4.26-1.67-6.6,0-3.64,1.25-6.68,3.72-9.05,2.56-2.41,5.75-3.63,9.49-3.63,2.14,0,4.15.36,5.96,1.06,1.63.6,3.28,1.74,4.92,3.39.4-.84.71-1.71.76-2.61l.04-.63,3.3-.5.28,14.11-3.13.44-.19-.66c-1.03-3.6-2.48-6.18-4.59-8.13-2.05-1.84-4.32-2.74-6.95-2.74-2.46,0-4.2.63-5.31,1.91-1.09,1.2-1.66,2.64-1.66,4.16,0,1.85.71,3.44,2.12,4.71,1.43,1.38,4.17,2.98,8.39,4.92,3.94,1.7,6.92,3.18,8.85,4.39,1.97,1.17,3.57,2.8,4.72,4.85,1.21,2.06,1.83,4.48,1.83,7.19,0,4.25-1.46,7.77-4.33,10.45-2.84,2.66-6.66,4.01-11.35,4.01Z"/>
        <path class="cls-1" d="M755.72,203.14l-.52-3.74,3.61.09c2.13,0,3.16-.34,3.64-.63.44-.33.79-.91.95-1.65.19-.92.28-3.22.28-7.24v-31.98l-5.81.24c-2.61,0-4.82.03-5.76.33-.78.23-1.55.93-2.35,2.14-.79,1.35-1.45,3.51-1.86,6.23l-.09.59-3.31.39-.06-13.14,46.99-.3.53,12.95-3.13.49-.17-.7c-.85-3.55-1.51-5.42-2.26-6.46-.75-1.2-1.55-1.9-2.39-2.14-.85-.27-2.43-.38-5.15-.38h-6.64l.27,31.73c0,3.41.04,5.9.23,7,.13.85.46,1.46,1.02,1.88.31.23,1.19.63,3.59.63h2.96l.48,3.65h-25.04Z"/>
        <path class="cls-1" d="M823.99,203.99c-7.65,0-14.01-2.34-18.91-6.97-4.91-4.61-7.4-10.83-7.4-18.47s2.52-13.62,7.5-18.07c4.96-4.53,11.26-6.83,18.7-6.83s13.79,2.26,18.82,6.73c5.16,4.55,7.67,10.57,7.67,18.4s-2.46,13.62-7.32,18.25c-4.81,4.62-11.22,6.97-19.05,6.97ZM823.93,157.47c-5.23,0-9.3,1.77-12.1,5.26-2.81,3.54-4.17,8.79-4.17,16.04s1.41,12.71,4.17,16.17c2.82,3.52,6.95,5.24,12.62,5.24,4.93,0,8.84-1.76,11.63-5.24,2.87-3.51,4.32-8.93,4.32-16.1s-1.44-12.32-4.29-15.99c-2.75-3.57-6.85-5.38-12.18-5.38Z"/>
        <path class="cls-1" d="M856.25,203.14l-.46-3.76,2.45.11c1.57,0,2.85-.22,3.48-.62.55-.33.88-.85,1.05-1.65.19-.93.29-3.3.29-7.24v-22.76c0-3.8-.09-6.08-.29-6.98-.17-.81-.46-1.32-.88-1.58-.28-.14-1.26-.42-4.09-.42h-1.55l-.44-3.77,8.55-.22c3.92-.09,7.02-.17,9.36-.17,5,0,8.71.38,11.37,1.18,2.83.8,5.09,2.22,6.89,4.31,1.86,2.14,2.77,4.74,2.77,7.94,0,2.68-.6,5.06-1.82,7.27-1.29,2.16-3.12,3.79-5.43,4.86-2.16,1.06-5.96,1.57-11.6,1.57h-4.29l.25,8.74c0,5.12.19,6.94.21,7.13.13.78.45,1.35,1,1.76.27.18,1.2.64,3.64.64h2.25l.46,3.65h-23.16ZM874.18,177.43c2.56,0,4.62-.25,6.1-.74,1.43-.46,2.62-1.44,3.54-2.94,1.05-1.59,1.55-3.48,1.55-5.8,0-3.51-.86-6.09-2.55-7.67-1.67-1.6-4.51-2.41-8.45-2.41-1.11,0-2.03.03-2.77.06l.23,19.46,2.34.04Z"/>
        <path class="cls-1" d="M268.64,204.28c-6.61,0-12.28-2.38-16.88-7.08-.58,1.16-1.04,2.65-1.36,4.43l-.11.58-3.71.38-.27-21.81,3.67-.43.15.69c2.73,12.71,8.51,18.88,17.66,18.88,4.18,0,7.41-1.09,9.59-3.22,2.36-2.38,3.37-4.71,3.37-7.8,0-3.44-.96-6.46-2.58-8.08-1.92-1.9-5.76-4.09-11.42-6.51-4.48-1.92-8.71-3.74-11.38-5.46-2.67-1.65-5.42-3.5-6.93-6.26-1.72-3.21-1.97-6.55-1.97-8.25,0-4.74,1.66-8.69,4.93-11.75,3.21-3.15,7.38-4.75,12.36-4.75,2.71,0,5.31.46,7.74,1.36,2.25.83,4.55,2.43,6.84,4.79.71-1.39,1.15-2.75,1.29-4.06l.06-.62,3.49-.43.29,18.05-3.33.44-.19-.64c-1.54-5.22-3.43-8.71-5.95-11.01-2.68-2.47-6.03-3.79-9.69-3.81-3.43,0-6.22.98-7.84,2.75-1.46,1.77-2.28,3.96-2.28,6.12,0,2.66,1.23,5.48,3.12,7.19,2.05,1.99,5.97,4.29,11.36,6.67,5.52,2.5,9.43,4.35,11.86,5.83,2.94,1.73,4.97,3.67,6.39,6.08,1.6,2.79,2.22,5.24,2.22,8.77,0,5.54-1.88,10.14-5.6,13.68-3.81,3.5-8.83,5.28-14.93,5.28Z"/>
        <path class="cls-1" d="M718.36,204.28c-6.61,0-12.28-2.38-16.87-7.09-.6,1.18-1.05,2.67-1.35,4.45l-.1.6-3.72.35-.27-21.8,3.65-.42.15.69c2.74,12.7,8.53,18.88,17.71,18.88,4.17,0,7.38-1.08,9.56-3.22,2.33-2.35,3.37-4.75,3.37-7.77,0-3.45-.97-6.49-2.59-8.11-1.95-1.91-5.79-4.11-11.4-6.53-4.64-1.95-8.71-3.7-11.45-5.42-2.64-1.68-5.34-3.54-6.84-6.26-1.67-2.91-2.02-6.1-2.02-8.27,0-4.67,1.64-8.63,4.88-11.76,3.29-3.14,7.45-4.73,12.39-4.73,2.69,0,5.32.45,7.8,1.32,2.28.89,4.54,2.49,6.77,4.79.82-1.52,1.22-2.78,1.35-4.05l.07-.62,3.48-.4.28,18.02-3.33.48-.19-.65c-1.52-5.17-3.42-8.67-5.98-11.02-2.72-2.53-5.98-3.81-9.69-3.81-3.41,0-6.23.99-7.74,2.72-1.5,1.74-2.33,3.92-2.33,6.14,0,2.67,1.21,5.49,3.08,7.18,2.17,2.05,6.1,4.36,11.37,6.69,6.39,2.88,9.7,4.51,11.84,5.83,3,1.71,5.04,3.64,6.41,6.07,1.6,2.77,2.23,5.22,2.23,8.74,0,5.56-1.9,10.18-5.64,13.72-3.75,3.49-8.76,5.25-14.9,5.25Z"/>
      </g>
    </g>
  </g>
</svg>