<?xml version="1.0" encoding="UTF-8"?>
<svg id="Layer_2" data-name="Layer 2" xmlns="http://www.w3.org/2000/svg" viewBox="0 0 842.73 356.71">
  <defs>
    <style>
      .cls-1 {
        fill: #fff;
      }

      .cls-2 {
        fill: #231f20;
        font-family: CommutersSans-Bold, 'CommutersSans Bold';
        font-size: 18.07px;
        font-weight: 700;
      }

      .cls-3 {
        fill: none;
        stroke: #ababab;
        stroke-miterlimit: 10;
        stroke-width: 2px;
      }

      .cls-4 {
        fill: #c6202d;
      }
    </style>
  </defs>
  <g id="Layer_1-2" data-name="Layer 1">
    <g>
      <g>
        <path class="cls-1" d="M180.44,53.8l2.07.1c1.93,0,2.78-.34,3.12-.54.42-.29.73-.78.88-1.45.09-.5.25-2.04.25-6.33v-19.9c0-4.12-.16-5.6-.25-6.12-.08-.46-.28-1.07-.77-1.36-.24-.13-1.07-.37-3.52-.37h-1.32l-.45-3.02,19.93-.27.5,3.29h-1.88c-2.76,0-3.37.3-3.43.33-.38.22-.66.66-.84,1.32-.09.44-.25,1.89-.25,6.2v7.31l19.67-.22-.23-7.07c0-2.84-.1-5.2-.26-6.18-.08-.44-.28-1.04-.76-1.32-.15-.09-.83-.37-3.49-.37h-1.69l-.45-3.02,20.12-.27.49,3.29h-1.66c-2.5,0-3.29.24-3.51.35-.34.2-.63.64-.83,1.31-.16.71-.24,2.8-.24,6.19v19.9c0,3.07.06,5.22.18,6.2.14.72.43,1.22.9,1.55.24.18,1.03.57,3.24.57h1.44l.4,3.19h-20.11l-.43-3.28,2.41.09c1.94,0,2.78-.34,3.11-.54.44-.27.72-.74.86-1.42.16-1,.26-3.44.26-6.35v-9.11l-19.63.21.19,8.88c0,3.49.07,5.32.23,6.14.1.77.38,1.29.85,1.63.23.17.99.56,3.15.56h1.67l.45,2.96-19.94.24-.44-3.3Z"/>
        <path class="cls-1" d="M256.58,57.83c-6.7,0-12.26-2.05-16.54-6.09-4.35-4.11-6.56-9.55-6.56-16.16s2.24-11.85,6.65-15.8c4.37-3.96,9.86-5.97,16.33-5.97s12.11,1.98,16.52,5.88c4.47,3.93,6.73,9.34,6.73,16.09s-2.15,11.85-6.4,15.95c-4.28,4.11-9.76,6.1-16.74,6.1ZM256.53,17.15c-4.63,0-8.09,1.51-10.59,4.62-2.45,3.11-3.69,7.82-3.69,14.01s1.24,11.06,3.69,14.14c2.49,3.08,6.12,4.58,11.1,4.58,4.26,0,7.67-1.54,10.13-4.58,2.53-3.08,3.81-7.81,3.81-14.08s-1.25-10.8-3.72-13.98c-2.43-3.12-6.04-4.7-10.73-4.7Z"/>
        <path class="cls-1" d="M285.76,57.09l-.41-3.29,2.1.1c2.08,0,2.87-.37,3.11-.53.48-.3.76-.74.94-1.48.02-.11.26-1.52.26-6.3v-19.9c0-2.62-.11-5.05-.27-6.19-.18-.67-.42-1.1-.75-1.28-.26-.14-1.09-.38-3.59-.38h-1.38l-.4-3.3,7.44-.19c3.45-.08,6.21-.15,8.24-.15,4.38,0,7.64.34,9.98,1.03,2.48.71,4.46,1.94,6.03,3.77,1.62,1.87,2.43,4.21,2.43,6.94,0,2.41-.54,4.49-1.66,6.37-1.06,1.85-2.63,3.28-4.66,4.23-1.96.94-5.19,1.38-10.14,1.38h-3.82l.21,7.64c0,3.26.13,5.34.25,6.2.14.78.4,1.27.83,1.56.25.18,1.07.57,3.25.57h1.94l.43,3.19h-20.35ZM301.48,34.61c2.3,0,4.05-.21,5.34-.65,1.2-.39,2.23-1.25,3.14-2.62.83-1.27,1.26-2.96,1.26-5.03,0-3.07-.73-5.33-2.16-6.72-1.49-1.41-3.92-2.1-7.42-2.1-.96,0-1.77.02-2.42.06l.18,17.02,2.08.04Z"/>
        <path class="cls-1" d="M325.54,57.09l-.43-3.29,2.14.1c2.05,0,2.84-.37,3.09-.53.49-.3.78-.76.93-1.46.13-.81.19-2.96.19-6.33v-19.9c0-3.25-.07-5.33-.2-6.18-.15-.65-.41-1.1-.77-1.29-.46-.25-1.67-.38-3.58-.38h-1.38l-.42-3.3,7.54-.19c3.43-.08,6.15-.14,8.16-.14,4.29,0,7.54.34,9.95,1.03,2.45.7,4.49,1.97,6.06,3.77,1.61,1.89,2.42,4.22,2.42,6.95,0,2.42-.54,4.5-1.67,6.37-1.05,1.83-2.61,3.26-4.63,4.23-2.02.96-5.17,1.38-10.22,1.38h-3.73l.22,7.64c0,3.31.06,5.33.17,6.21.15.72.44,1.24.89,1.57.23.17,1.01.56,3.21.56h1.97l.38,3.19h-20.31ZM341.23,34.61c2.28,0,4.04-.21,5.37-.65,1.21-.39,2.22-1.22,3.17-2.62.83-1.3,1.26-2.99,1.26-5.02,0-3.07-.75-5.33-2.22-6.71-1.46-1.4-3.93-2.11-7.36-2.11-.98,0-1.79.02-2.42.06l.19,17.02,2.01.04Z"/>
        <path class="cls-1" d="M365.29,57.09l-.41-3.3,1.87.11c2.65,0,3.16-.46,3.21-.52.5-.46.8-.99.94-1.62.13-.71.19-2.68.19-6.18v-19.9c0-3.31-.07-5.16-.23-6.02-.18-.99-.51-1.29-.74-1.43-.3-.2-1.11-.41-3.42-.41h-.59l-.44-3.03,30.81-.27,1.3,11.67-2.82.46-.17-.58c-.96-3.18-1.7-4.95-2.49-5.91-.77-1.03-1.73-1.69-2.8-1.96-1.2-.26-3.22-.4-5.99-.4h-4.95l.22,15.4,3.42-.2c1.89,0,3.16-.14,3.81-.42.55-.26.91-.59,1.03-.96.19-.5.4-1.54.4-3.79v-.59l2.94-.44.26,15.48-2.92.46-.06-.74c-.17-2.3-.43-3.79-.76-4.41-.24-.52-.61-.85-1.12-1.03-.66-.2-1.81-.31-3.37-.31h-3.83l.22,8.67c0,6.42.59,7.79.78,8.05.1.14.8.88,4.29.88h3.06c1.98,0,3.65-.26,4.96-.76,1.15-.47,2.34-1.5,3.53-3.07,1.19-1.66,2.13-3.94,2.79-6.76l.11-.47,2.96-.32v.33s.02,0,.02,0l-.07,1.3-.63,12.94h-35.28Z"/>
        <path class="cls-1" d="M406.87,53.81l2.36.09c2.12,0,2.85-.4,3.03-.52.53-.31.81-.75.97-1.48.15-.93.25-3.31.25-6.32v-19.9c0-2.89-.09-5.19-.25-6.16-.08-.44-.28-1.04-.76-1.32-.24-.13-1.06-.37-3.58-.37h-1.31l-.39-3.29,6.81-.26c3.5-.19,6.63-.29,9.32-.29,4.01,0,7.2.38,9.74,1.16,2.63.78,4.76,2.05,6.32,3.79,1.64,1.76,2.48,3.95,2.48,6.5,0,2.97-1.06,5.41-3.26,7.46-1.66,1.63-3.98,2.77-6.9,3.39,1.74,1.55,3.97,4.17,6.64,7.82,3.13,4.19,5.43,6.76,7.04,7.87,1.59,1.21,3.52,1.85,5.77,1.93l.58.02.4,3.17h-12.2l-.18-.12c-2.15-1.46-5.19-5.03-9.31-10.93-1.08-1.6-2.29-3.22-3.94-5.27-1.7-2.03-2.38-2.7-2.66-2.9-.35-.25-.97-.38-1.9-.38h-.95l.21,8.08c0,2.87.08,5.19.2,6.21.12.71.4,1.23.84,1.57.48.34,1.7.55,3.23.55h2.57l.43,2.96-21.19.24-.39-3.29ZM421.17,34.22l.65-.02c1.01-.04,2.05-.07,3.05-.12,1.4-.05,2.69-.26,3.97-.62,1.16-.37,1.97-.8,2.47-1.32.71-.66,1.19-1.43,1.5-2.38.42-1.08.64-2.4.64-3.85,0-2.64-.64-4.7-1.96-6.3-1.23-1.47-4.22-2.25-8.66-2.25-.53,0-1.15.03-1.85.09l.2,16.78Z"/>
        <path class="cls-1" d="M472.83,57.83c-4.34,0-8.03-1.51-10.99-4.5-.33.71-.6,1.58-.81,2.6l-.1.49-2.96.32-.25-14.66,2.94-.4.14.61c1.86,8.34,5.5,12.22,11.45,12.22,2.64,0,4.65-.71,5.99-2.13,1.45-1.48,2.15-3.07,2.15-4.85s-.62-3.24-1.84-4.49c-1.28-1.28-3.67-2.64-7.28-4.14-3.77-1.69-6.01-2.8-7.51-3.74-1.8-1.17-3.23-2.68-4.24-4.49-.97-1.79-1.46-3.73-1.46-5.78,0-3.18,1.1-5.84,3.26-7.92,2.25-2.11,5.04-3.17,8.31-3.17,1.88,0,3.63.31,5.22.93,1.43.52,2.88,1.52,4.31,2.96.35-.73.62-1.5.67-2.28l.04-.55,2.89-.43.24,12.34-2.74.39-.16-.57c-.9-3.15-2.18-5.41-4.02-7.11-1.79-1.61-3.79-2.4-6.09-2.4-2.15,0-3.68.55-4.65,1.67-.95,1.05-1.45,2.31-1.45,3.64,0,1.62.62,3.01,1.86,4.12,1.26,1.21,3.65,2.61,7.35,4.3,3.45,1.49,6.06,2.78,7.75,3.84,1.73,1.02,3.12,2.45,4.13,4.24,1.06,1.8,1.6,3.92,1.6,6.29,0,3.72-1.28,6.8-3.79,9.14-2.49,2.33-5.83,3.51-9.94,3.51Z"/>
        <path class="cls-1" d="M583.45,57.09l-.46-3.27,3.17.08c1.86,0,2.76-.3,3.19-.55.39-.29.69-.8.83-1.44.17-.8.25-2.82.25-6.33v-27.97l-5.09.21c-2.28,0-4.22.02-5.05.29-.68.2-1.35.81-2.06,1.87-.69,1.18-1.27,3.07-1.63,5.45l-.08.51-2.9.34-.05-11.49,41.16-.26.47,11.32-2.74.43-.15-.61c-.74-3.1-1.32-4.74-1.98-5.65-.66-1.05-1.35-1.66-2.09-1.87-.75-.23-2.13-.34-4.51-.34h-5.82l.23,27.75c0,2.98.04,5.16.2,6.12.11.74.41,1.27.89,1.65.27.2,1.05.55,3.15.55h2.59l.42,3.19h-21.93Z"/>
        <path class="cls-1" d="M643.25,57.83c-6.7,0-12.27-2.05-16.57-6.09-4.3-4.03-6.48-9.47-6.48-16.16s2.21-11.91,6.57-15.8c4.35-3.96,9.86-5.97,16.37-5.97s12.08,1.98,16.48,5.88c4.52,3.98,6.72,9.24,6.72,16.09s-2.16,11.91-6.41,15.96c-4.21,4.04-9.82,6.09-16.69,6.09ZM643.19,17.15c-4.58,0-8.15,1.55-10.6,4.6-2.46,3.1-3.66,7.68-3.66,14.02s1.23,11.11,3.66,14.14c2.47,3.08,6.09,4.58,11.05,4.58,4.31,0,7.74-1.54,10.19-4.58,2.51-3.07,3.79-7.81,3.79-14.08s-1.26-10.77-3.76-13.98c-2.41-3.12-6-4.7-10.67-4.7Z"/>
        <path class="cls-1" d="M671.5,57.09l-.4-3.29,2.14.1c1.38,0,2.5-.2,3.05-.54.48-.29.77-.74.92-1.45.17-.81.25-2.88.25-6.33v-19.9c0-3.32-.08-5.32-.25-6.1-.15-.71-.4-1.16-.77-1.38-.24-.12-1.1-.37-3.58-.37h-1.36l-.39-3.3,7.48-.19c3.43-.08,6.15-.14,8.2-.14,4.37,0,7.63.34,9.96,1.03,2.48.7,4.46,1.94,6.03,3.77,1.63,1.87,2.43,4.14,2.43,6.94,0,2.35-.52,4.43-1.59,6.35-1.13,1.89-2.73,3.31-4.76,4.25-1.89.92-5.22,1.38-10.16,1.38h-3.76l.22,7.64c0,4.48.16,6.07.18,6.24.11.68.39,1.18.88,1.54.23.16,1.05.56,3.19.56h1.97l.41,3.19h-20.28ZM687.2,34.61c2.24,0,4.05-.22,5.35-.65,1.26-.4,2.3-1.26,3.1-2.57.92-1.39,1.36-3.04,1.36-5.07,0-3.07-.75-5.32-2.24-6.71-1.46-1.4-3.95-2.11-7.4-2.11-.97,0-1.78.02-2.43.06l.21,17.02,2.05.04Z"/>
        <path class="cls-1" d="M156.84,58.09c-5.79,0-10.75-2.08-14.78-6.19-.51,1.02-.91,2.31-1.19,3.88l-.09.51-3.25.33-.24-19.07,3.21-.37.13.61c2.39,11.11,7.45,16.51,15.47,16.51,3.66,0,6.49-.95,8.4-2.82,2.07-2.08,2.95-4.12,2.95-6.82,0-3-.84-5.65-2.26-7.07-1.68-1.66-5.05-3.58-10-5.69-3.92-1.68-7.63-3.27-9.97-4.78-2.34-1.45-4.74-3.06-6.07-5.48-1.5-2.81-1.73-5.73-1.73-7.22,0-4.14,1.45-7.6,4.32-10.28,2.82-2.75,6.46-4.15,10.82-4.15,2.37,0,4.65.4,6.78,1.19,1.97.72,3.99,2.13,5.99,4.19.62-1.21,1.01-2.41,1.13-3.55l.06-.54,3.06-.37.26,15.78-2.92.38-.17-.56c-1.35-4.56-3-7.62-5.21-9.62-2.35-2.16-5.28-3.31-8.49-3.33-3,0-5.44.85-6.87,2.4-1.28,1.55-2,3.46-2,5.35,0,2.33,1.07,4.8,2.73,6.28,1.79,1.74,5.23,3.75,9.95,5.84,4.83,2.19,8.26,3.8,10.39,5.1,2.57,1.52,4.36,3.21,5.6,5.32,1.4,2.44,1.94,4.58,1.94,7.67,0,4.84-1.65,8.87-4.9,11.96-3.34,3.07-7.73,4.62-13.07,4.62Z"/>
        <path class="cls-1" d="M550.73,58.09c-5.79,0-10.76-2.08-14.78-6.2-.52,1.03-.92,2.33-1.18,3.89l-.09.52-3.25.3-.23-19.06,3.2-.37.13.61c2.4,11.11,7.47,16.51,15.51,16.51,3.65,0,6.47-.95,8.37-2.82,2.04-2.06,2.96-4.15,2.96-6.79,0-3.02-.85-5.67-2.26-7.09-1.71-1.67-5.07-3.59-9.99-5.71-4.06-1.7-7.63-3.24-10.03-4.74-2.31-1.47-4.67-3.1-5.99-5.48-1.46-2.54-1.77-5.34-1.77-7.23,0-4.09,1.44-7.55,4.28-10.29,2.88-2.75,6.53-4.14,10.86-4.14,2.36,0,4.66.39,6.83,1.16,1.99.78,3.98,2.18,5.93,4.19.71-1.33,1.07-2.43,1.18-3.54l.06-.55,3.05-.35.24,15.76-2.92.42-.17-.57c-1.33-4.52-2.99-7.58-5.24-9.63-2.38-2.21-5.24-3.33-8.49-3.33-2.98,0-5.45.87-6.78,2.38-1.31,1.52-2.04,3.43-2.04,5.37,0,2.33,1.06,4.8,2.7,6.28,1.9,1.8,5.34,3.82,9.96,5.85,5.59,2.52,8.5,3.95,10.37,5.1,2.63,1.49,4.42,3.19,5.61,5.31,1.4,2.42,1.95,4.57,1.95,7.64,0,4.86-1.66,8.9-4.94,11.99-3.28,3.05-7.67,4.6-13.05,4.6Z"/>
      </g>
      <g>
        <g>
          <rect class="cls-3" x="417.28" y="91.14" width="424.46" height="149.3"/>
          <g>
            <g>
              <path class="cls-1" d="M727.22,210c0-7.48,5.32-12.48,13.26-12.48s13.26,5,13.26,12.48-5.32,12.48-13.26,12.48-13.26-5-13.26-12.48ZM748.1,210c0-4.5-3.08-7.59-7.62-7.59s-7.62,3.08-7.62,7.59,3.08,7.59,7.62,7.59,7.62-3.08,7.62-7.59Z"/>
              <path class="cls-1" d="M763.31,202.7v5.35h13.97v4.75h-13.97v9.25h-5.53v-24.11h21.8v4.75h-16.27Z"/>
              <path class="cls-1" d="M788.69,202.7v5.35h13.97v4.75h-13.97v9.25h-5.53v-24.11h21.8v4.75h-16.27Z"/>
            </g>
            <path class="cls-1" d="M727.22,128.05c0-10.57,7.69-17.96,18.73-17.96s18.73,7.4,18.73,17.96-7.69,18.06-18.73,18.06-18.73-7.4-18.73-18.06ZM756.13,128.05c0-6.15-4.13-10.47-10.18-10.47s-10.18,4.32-10.18,10.47,4.13,10.57,10.18,10.57,10.18-4.32,10.18-10.57ZM785.63,110.76h8.65l-40.73,65.32h-8.74l40.83-65.32ZM774.39,158.79c0-10.66,7.69-18.06,18.73-18.06s18.73,7.4,18.73,18.06-7.69,17.96-18.73,17.96-18.73-7.4-18.73-17.96ZM803.3,158.79c0-6.24-4.13-10.57-10.18-10.57s-10.18,4.32-10.18,10.57,4.13,10.47,10.18,10.47,10.18-4.32,10.18-10.47Z"/>
            <g>
              <path class="cls-1" d="M597.21,185.71c0,24.21-19.3,37.45-52.5,37.45-23.22,0-44.48-6.38-56.75-16.03l8.01-15.7c12.1,9,30.09,14.39,48.57,14.39,20.77,0,32.87-7.03,32.87-19.95,0-11.94-10.3-17.83-30.58-17.83-16.19,0-30.09,3.6-40.07,10.63l-13.25-3.76,6.05-64.93h91.1v16.85h-74.9l-3.43,35.65c11.12-7.52,25.19-11.45,40.89-11.45,27.8,0,43.99,12.43,43.99,34.67Z"/>
              <path class="cls-1" d="M606.37,165.59c0-34.02,24.04-57.57,58.88-57.57s58.88,23.55,58.88,57.57-24.04,57.57-58.88,57.57-58.88-23.55-58.88-57.57ZM704.33,165.59c0-23.88-15.7-40.07-39.09-40.07s-39.09,16.19-39.09,40.07,15.7,40.07,39.09,40.07,39.09-16.19,39.09-40.07Z"/>
            </g>
            <g>
              <path class="cls-1" d="M450.61,205.51h5.35v-13.97h4.75v13.97h9.25v5.53h-24.11v-21.8h4.75v16.27Z"/>
              <path class="cls-1" d="M465.22,164.56h4.75v21.1h-24.11v-5.53h19.36v-15.56Z"/>
              <path class="cls-1" d="M464.86,144.14v10.88l5.11,2.16v5.78l-24.11-10.67v-5.67l24.11-10.67v6.03l-5.11,2.16ZM460.25,153.08v-6.98l-8.76,3.47,8.76,3.51Z"/>
              <path class="cls-1" d="M450.61,115v8.93h19.36v5.53h-19.36v8.93h-4.75v-23.4h4.75Z"/>
            </g>
          </g>
        </g>
        <g>
          <rect class="cls-4" x="1" y="91.15" width="417.28" height="149.18"/>
          <path class="cls-4" d="M417.28,92.15v147.18H2V92.15h415.28M419.28,90.15H0v151.18h419.28V90.15h0Z"/>
        </g>
        <g>
          <path class="cls-1" d="M117.74,138.81l-1.82-.03c-1.76-5.1-3.68-10.21-6.61-14.76-6.28-9.76-20.45-16.47-32.01-15.75-7.44.46-16.29,4.66-17.61,12.73-1.86,11.36,9.86,15.53,18.5,18.23,12.2,3.81,33.96,8.01,41.75,18.58,5.67,7.69,3.72,20.11-2.28,27.08-6.35,7.37-16.35,9.82-25.8,9.27-.28,1.48-.22,2.95-.44,4.46-3.02,20.11-26.74,24.44-43.11,18.42-5.94-2.18-12.25-6.77-18.74-6.25-4.75.38-7.79,4.25-8.62,8.69l-1.83.02-.19-39.05h2.03c1.57,15.73,11.68,26.45,25.47,32.91,11.02,5.16,28.23,8.08,34.33-5.59,5.21-11.66-4.41-18.4-14.1-21.86-9.86-3.53-20.39-5.95-30.2-9.58-10.71-3.96-19.95-10.96-18.25-23.71,1.97-14.8,17.88-21.87,31.44-20.84-.9-9.79,5.25-18.11,13.81-22.18,10.88-5.17,22.97-3.69,33.63,1.11,3.12,1.41,10.02,5.8,12.97,5.91,3.7.13,5.11-3.88,5.85-6.84l1.83-.02v29.05ZM49.8,133.65c-9.64-.88-22.55,4.36-21.81,15.8.6,9.26,11.3,12.81,18.73,15.13,7.64,2.39,15.47,4.24,23,6.98,9.63,3.5,21.43,8.95,21.92,20.73,8.69.97,17.78-2.21,21.05-10.87,3.87-10.24-3.97-16.71-12.54-20.12-10.03-3.99-21.32-6.4-31.55-10.08-8.36-3.02-17.06-8.07-18.8-17.56Z"/>
          <g>
            <path class="cls-1" d="M174.29,219.63v-4.57c10.62-1.31,11.92-2.94,9.64-9.15-2.12-6.37-5.39-14.53-8.82-24.82h-35.28c-2.61,7.35-5.06,13.72-7.35,20.41-3.59,10.62-1.31,11.92,12.09,13.55v4.57h-37.72v-4.57c10.29-1.31,12.9-2.45,18.62-17.15l33.8-85.74,5.23-.98c10.29,27.93,21.56,58.79,31.85,87.04,5.23,14.21,6.7,15.51,18.29,16.82v4.57h-40.34ZM157.96,132.58c-5.23,14.04-10.78,28.91-15.68,41.81h30.54l-14.86-41.81Z"/>
            <path class="cls-1" d="M304.55,192.52c-.98,5.06-5.88,22.05-7.51,27.11h-75.94v-4.57c14.86-1.47,16.17-2.29,16.17-16.17v-64.83c0-13.88-1.63-14.7-14.7-16v-4.57h43.77v4.57c-13.07,1.31-14.86,1.96-14.86,16v66.47c0,9.96,1.31,12.25,10.61,12.41.16,0,11.92.16,12.9.16,8.33,0,10.78-.98,14.53-5.06,4.08-4.25,7.51-10.78,9.96-16.82l5.06,1.31Z"/>
            <path class="cls-1" d="M397.2,193.66c-.98,4.25-5.39,21.07-7.02,25.97h-79.37v-4.57c15.19-1.14,16.33-2.61,16.33-16v-64.51c0-14.53-1.8-15.35-14.04-16.49v-4.57h49.97c15.35,0,21.72-.16,23.68-.33.16,4.08.82,16.33,1.47,24.99l-4.9.82c-1.47-5.55-3.1-8.98-4.9-12.41-2.61-5.39-6.37-6.53-16.17-6.53h-15.51c-5.06,0-5.39.49-5.39,5.23v36.09h18.13c12.25,0,13.06-2.45,15.02-13.55h5.06v33.64h-5.06c-2.12-11.76-3.43-13.39-15.19-13.39h-17.96v32.5c0,11.43,3.59,12.41,11.76,12.57h15.19c9.96,0,11.6-1.47,15.19-5.72,3.1-3.43,6.53-10.13,8.82-15.02l4.9,1.31Z"/>
          </g>
        </g>
      </g>
      <g>
        <path class="cls-1" d="M318.6,304.27l1.57-2.9c2.42,1.72,5.38,2.66,8.56,2.66,3.81,0,5.83-1.03,5.83-3.05,0-1.69-1.48-2.36-6.05-2.69-6.59-.51-9.01-2.12-9.01-6.02s3.36-6.32,9.04-6.32c3.39,0,6.26.85,8.59,2.48l-1.45,2.84c-2-1.42-4.44-2.12-7.17-2.12-3.3,0-5.29,1.09-5.29,2.96,0,1.69,1.45,2.36,6.02,2.69,6.62.51,9.04,2.12,9.04,6.02,0,4.17-3.36,6.41-9.52,6.41-3.99,0-7.47-1.03-10.16-2.96Z"/>
        <path class="cls-1" d="M362.04,286.31v20.56h-3.66v-8.8h-12.24v8.8h-3.66v-20.56h3.66v8.62h12.24v-8.62h3.66Z"/>
        <path class="cls-1" d="M366.46,296.59c0-6.38,4.5-10.64,11.25-10.64s11.28,4.26,11.28,10.64-4.5,10.64-11.28,10.64-11.25-4.26-11.25-10.64ZM385.23,296.59c0-4.41-3.02-7.38-7.53-7.38s-7.53,2.96-7.53,7.38,3.05,7.38,7.53,7.38,7.53-2.96,7.53-7.38Z"/>
        <path class="cls-1" d="M412.42,292.81c0,4.23-2.6,6.53-7.32,6.53h-8.04v7.53h-3.66v-20.56h11.7c4.72,0,7.32,2.3,7.32,6.5ZM408.67,292.81c0-2.27-1.33-3.36-4.08-3.36h-7.53v6.74h7.53c2.75,0,4.08-1.09,4.08-3.39Z"/>
        <path class="cls-1" d="M429.38,289.45v5.74h12.61v3.14h-12.61v8.53h-3.66v-20.56h18.23v3.14h-14.57Z"/>
        <path class="cls-1" d="M463.82,306.87l-5.62-8.04h-6.65v8.04h-3.66v-20.56h12.27c4.54,0,7.01,2.21,7.01,6.26,0,3.33-1.69,5.41-4.81,6.05l5.8,8.25h-4.35ZM451.54,295.68h8.1c2.57,0,3.81-1.03,3.81-3.11s-1.24-3.11-3.81-3.11h-8.1v6.23Z"/>
        <path class="cls-1" d="M471.04,296.59c0-6.38,4.51-10.64,11.25-10.64s11.28,4.26,11.28,10.64-4.5,10.64-11.28,10.64-11.25-4.26-11.25-10.64ZM489.82,296.59c0-4.41-3.02-7.38-7.53-7.38s-7.53,2.96-7.53,7.38,3.05,7.38,7.53,7.38,7.53-2.96,7.53-7.38Z"/>
        <path class="cls-1" d="M522.6,306.87h-3.66v-16.3l-7.38,16.3h-2.69l-7.38-16.3v16.3h-3.51v-20.56h5.2l7.11,15.69,7.1-15.69h5.2v20.56Z"/>
        <path class="cls-1" d="M233.34,332.98c0,4.47-3.57,6.92-9.7,6.92-4.29,0-8.22-1.18-10.49-2.96l1.48-2.9c2.24,1.66,5.56,2.66,8.98,2.66,3.84,0,6.08-1.3,6.08-3.69,0-2.21-1.9-3.3-5.65-3.3-2.99,0-5.56.67-7.41,1.96l-2.45-.7,1.12-12h16.84v3.11h-13.85l-.63,6.59c2.06-1.39,4.66-2.12,7.56-2.12,5.14,0,8.13,2.3,8.13,6.41Z"/>
        <path class="cls-1" d="M236.55,329.26c0-6.29,4.44-10.64,10.88-10.64s10.88,4.35,10.88,10.64-4.44,10.64-10.88,10.64-10.88-4.35-10.88-10.64ZM254.66,329.26c0-4.41-2.9-7.41-7.23-7.41s-7.23,2.99-7.23,7.41,2.9,7.41,7.23,7.41,7.23-2.99,7.23-7.41Z"/>
        <path class="cls-1" d="M261.62,329.26c0-6.29,4.44-10.64,10.88-10.64s10.88,4.35,10.88,10.64-4.44,10.64-10.88,10.64-10.88-4.35-10.88-10.64ZM279.73,329.26c0-4.41-2.9-7.41-7.23-7.41s-7.23,2.99-7.23,7.41,2.9,7.41,7.23,7.41,7.23-2.99,7.23-7.41Z"/>
        <path class="cls-1" d="M302.83,330.8h-6.74v6.74h-3.08v-6.74h-6.74v-3.08h6.74v-6.74h3.08v6.74h6.74v3.08Z"/>
        <path class="cls-1" d="M334.91,325.48c0,4.23-2.6,6.53-7.32,6.53h-8.04v7.53h-3.66v-20.56h11.7c4.72,0,7.32,2.3,7.32,6.5ZM331.16,325.48c0-2.27-1.33-3.36-4.08-3.36h-7.53v6.74h7.53c2.75,0,4.08-1.09,4.08-3.39Z"/>
        <path class="cls-1" d="M355.07,339.54l-5.62-8.04h-6.65v8.04h-3.66v-20.56h12.28c4.53,0,7.01,2.21,7.01,6.26,0,3.33-1.69,5.41-4.81,6.05l5.8,8.25h-4.35ZM342.8,328.35h8.1c2.57,0,3.81-1.03,3.81-3.11s-1.24-3.11-3.81-3.11h-8.1v6.23Z"/>
        <path class="cls-1" d="M367.05,322.12v5.47h12.61v3.14h-12.61v5.65h14.57v3.14h-18.23v-20.56h18.23v3.14h-14.57Z"/>
        <path class="cls-1" d="M410.5,339.54h-3.66v-16.3l-7.38,16.3h-2.69l-7.38-16.3v16.3h-3.51v-20.56h5.2l7.11,15.69,7.11-15.69h5.2v20.56Z"/>
        <path class="cls-1" d="M416,318.98h3.66v20.56h-3.66v-20.56Z"/>
        <path class="cls-1" d="M424.8,332.01v-13.03h3.66v12.43c0,3.51,2.03,5.23,6.08,5.23s6.05-1.72,6.05-5.23v-12.43h3.51v13.03c0,5.05-3.48,7.89-9.64,7.89s-9.64-2.84-9.64-7.89Z"/>
        <path class="cls-1" d="M473.84,339.54h-3.66v-16.3l-7.38,16.3h-2.69l-7.38-16.3v16.3h-3.51v-20.56h5.2l7.11,15.69,7.1-15.69h5.2v20.56Z"/>
        <path class="cls-1" d="M508.31,333.91c0,3.69-2.51,5.62-7.29,5.62h-12.61v-20.56h12.18c4.63,0,7.04,1.87,7.04,5.44,0,2.3-1.12,3.81-3.27,4.57,2.6.7,3.93,2.36,3.93,4.93ZM492.07,327.59h8.44c2.33,0,3.51-.91,3.51-2.72s-1.18-2.75-3.48-2.75h-8.47v5.47ZM504.59,333.55c0-1.87-1.24-2.81-3.72-2.81h-8.8v5.65h8.83c2.45,0,3.69-.94,3.69-2.84Z"/>
        <path class="cls-1" d="M528.69,339.54l-5.62-8.04h-6.65v8.04h-3.66v-20.56h12.27c4.54,0,7.01,2.21,7.01,6.26,0,3.33-1.69,5.41-4.81,6.05l5.8,8.25h-4.35ZM516.41,328.35h8.1c2.57,0,3.81-1.03,3.81-3.11s-1.24-3.11-3.81-3.11h-8.1v6.23Z"/>
        <path class="cls-1" d="M551.67,334.61h-10.34l-2.21,4.93h-3.84l9.43-20.56h3.72l9.43,20.56h-3.99l-2.21-4.93ZM542.69,331.52h7.62l-3.81-8.77-3.81,8.77Z"/>
        <path class="cls-1" d="M581.21,318.98v20.56h-3.42l-12.64-16.45v16.45h-3.51v-20.56h4.6l11.46,14.91v-14.91h3.51Z"/>
        <path class="cls-1" d="M606.67,329.26c0,6.32-4.08,10.28-10.61,10.28h-9.37v-20.56h9.37c6.53,0,10.61,3.96,10.61,10.28ZM602.95,329.26c0-4.47-2.72-7.14-7.29-7.14h-5.32v14.27h5.32c4.57,0,7.29-2.66,7.29-7.14Z"/>
        <path class="cls-1" d="M609.66,336.94l1.57-2.9c2.42,1.72,5.38,2.66,8.56,2.66,3.81,0,5.83-1.03,5.83-3.05,0-1.69-1.48-2.36-6.05-2.69-6.59-.51-9.01-2.12-9.01-6.02s3.36-6.32,9.04-6.32c3.39,0,6.26.85,8.59,2.48l-1.45,2.84c-2-1.42-4.44-2.12-7.17-2.12-3.3,0-5.29,1.09-5.29,2.96,0,1.69,1.45,2.36,6.02,2.69,6.62.51,9.04,2.12,9.04,6.02,0,4.17-3.36,6.41-9.52,6.41-3.99,0-7.47-1.03-10.16-2.96Z"/>
      </g>
      <text class="cls-2" transform="translate(523.96 352.19)"><tspan x="0" y="0">*</tspan></text>
    </g>
  </g>
</svg>